<?xml version="1.0" standalone="no"?><svg xmlns="http://www.w3.org/2000/svg" viewBox="0 0 1440 320"><path fill="#0e191b" fill-opacity="0.6" d="M0,0L40,32C80,64,160,128,240,133.3C320,139,400,85,480,106.7C560,128,640,224,720,234.7C800,245,880,171,960,133.3C1040,96,1120,96,1200,122.7C1280,149,1360,203,1400,229.3L1440,256L1440,320L1400,320C1360,320,1280,320,1200,320C1120,320,1040,320,960,320C880,320,800,320,720,320C640,320,560,320,480,320C400,320,320,320,240,320C160,320,80,320,40,320L0,320Z"></path></svg>